# Blender v2.93.4 OBJ File: 'knight.blend'
# www.blender.org
o Cube.004
v -0.162075 0.022913 -0.238857
v -0.162075 1.000000 -0.238857
v -0.176392 0.020152 -0.487552
v -0.176392 0.997239 -0.487552
v 0.162075 0.022913 -0.238857
v 0.162075 1.000000 -0.238857
v 0.147758 0.020152 -0.487552
v 0.147758 0.997239 -0.487552
v -0.162075 0.210856 -0.238857
v -0.176392 0.208095 -0.487552
v 0.147758 0.208095 -0.487552
v 0.162075 0.210856 -0.238857
v 0.365409 0.022913 -0.250562
v 0.351093 0.020152 -0.499258
v 0.351093 0.208095 -0.499258
v 0.365409 0.210856 -0.250562
v 0.326696 3.707501 -0.352538
v 0.326696 2.978767 -0.352538
v 0.326696 3.707501 0.352538
v 0.326696 2.978767 0.352538
v -0.326696 3.707501 -0.352538
v -0.326696 2.978767 -0.352538
v -0.326696 3.707501 0.352538
v -0.326696 2.978767 0.352538
v -0.010171 3.707501 -0.352538
v 0.128711 3.707501 -0.352538
v 0.059270 3.885596 -0.590503
v 0.059270 3.701722 -0.462967
v 0.128711 3.707501 0.346985
v -0.010171 3.707501 0.346985
v 0.059270 3.885596 0.584950
v 0.059270 3.701722 0.457413
v -0.382605 1.334648 0.617755
v -0.382605 2.958052 0.617755
v -0.382605 1.334648 -0.617754
v -0.382605 2.958052 -0.617754
v 0.382605 1.334648 0.617755
v 0.382605 2.958052 0.617755
v 0.382605 1.334648 -0.617754
v 0.382605 2.958052 -0.617754
v -0.398735 0.697572 0.617755
v -0.350281 1.674651 0.505152
v -0.350281 0.733776 -0.542686
v -0.350281 1.674651 -0.542686
v 0.398735 0.697572 0.617755
v 0.326055 1.674651 0.505152
v 0.398735 0.697572 -0.617754
v 0.326055 1.674651 -0.542686
v -0.162075 0.022913 0.381557
v -0.162075 1.000000 0.381557
v -0.176392 0.020152 0.132862
v -0.176392 0.997239 0.132862
v 0.162075 0.022913 0.381557
v 0.162075 1.000000 0.381557
v 0.147758 0.020152 0.132862
v 0.147758 0.997239 0.132862
v -0.162075 0.210856 0.381557
v -0.176392 0.208095 0.132862
v 0.147758 0.208095 0.132862
v 0.162075 0.210856 0.381557
v 0.365409 0.022913 0.369851
v 0.351093 0.020152 0.121156
v 0.351093 0.208095 0.121156
v 0.365409 0.210856 0.369851
v 0.808423 1.856999 -1.093322
v 0.805249 1.870160 -0.879456
v 0.594929 1.759539 -1.088597
v 0.260343 2.143217 -1.007860
v 0.047491 2.821660 -0.922399
v 0.018787 2.032946 -1.002515
v 0.256957 2.157260 -0.779679
v 0.043891 2.836585 -0.679902
v 0.015400 2.046989 -0.774333
v 0.591756 1.772700 -0.874731
v -0.225728 2.713503 -0.673936
v -0.233704 2.764145 -0.693592
v -0.222128 2.698578 -0.916432
v -0.230737 2.751844 -0.893473
v -0.197988 2.793461 -0.841240
v 0.003736 2.858882 -0.898662
v -0.051996 2.860107 -0.844471
v 0.000769 2.871183 -0.698781
v -0.053407 2.865962 -0.749325
v -0.199400 2.799316 -0.746094
v 0.744871 1.572429 -0.921075
v 0.902799 1.642574 -0.931558
v 0.701931 1.607294 -0.991310
v 0.742763 1.579930 -0.879896
v 0.900691 1.650074 -0.890380
v 0.699823 1.614794 -0.950132
v 0.624627 1.685590 -1.026189
v 0.881071 1.695297 -0.962163
v 0.805876 1.766092 -1.038220
v 0.883180 1.687796 -1.003341
v 0.807984 1.758592 -1.079398
v 0.757218 1.848543 -1.053537
v 0.626736 1.678089 -1.067367
v 0.579881 1.763035 -1.055433
v 0.598228 1.781229 -0.983378
v 0.589451 1.745644 -1.018766
v 0.607798 1.763838 -0.946712
v 0.766788 1.831151 -1.016871
v 0.759832 1.840325 -0.943728
v 0.750263 1.857717 -0.980394
v 0.762795 1.652992 -0.742130
v 0.762795 1.652992 -0.772465
v 0.762795 1.921089 -0.742130
v 0.849094 1.652992 -0.742130
v 0.849094 1.652992 -0.772465
v 0.849094 1.921089 -0.742130
v 0.849094 1.921089 -0.772465
v 0.762795 1.921089 -0.772465
v 0.915664 1.434706 -0.345375
v 0.915664 2.886925 -0.345375
v 0.915664 1.434706 -1.320194
v 0.915664 1.006123 -0.832784
v 0.846988 1.434706 -0.345375
v 0.846988 1.434706 -1.320194
v 0.846988 2.886925 -0.345375
v 0.846988 1.006123 -0.832784
v 0.846988 2.886925 -1.320194
v 0.915664 2.886925 -1.320194
v 0.182611 1.262320 1.031728
v 0.177017 1.273161 0.826955
v 0.418812 1.311196 1.027864
v -0.163809 2.766224 0.858154
v -0.155191 2.820761 0.835158
v -0.170152 2.778518 0.625969
v 0.134488 2.827948 0.853274
v 0.104222 2.874439 0.830914
v 0.128146 2.840243 0.621089
v 0.098994 2.884572 0.639532
v 0.413219 1.322037 0.823091
v 0.047166 2.892265 0.689531
v -0.160418 2.830894 0.643776
v -0.114355 2.858843 0.692173
v -0.111867 2.854020 0.783273
v 0.049654 2.887442 0.780631
v 0.456875 1.107959 0.759892
v 0.301882 1.031167 0.761225
v 0.453445 1.152979 0.833181
v 0.451006 1.119141 0.721570
v 0.296013 1.042348 0.722902
v 0.447575 1.164160 0.794859
v 0.432409 1.254669 0.879399
v 0.269696 1.076029 0.796389
v 0.254530 1.166538 0.880928
v 0.275565 1.064847 0.834711
v 0.260399 1.155357 0.919250
v 0.212469 1.251662 0.906330
v 0.438279 1.243488 0.917721
v 0.392558 1.332101 0.917280
v 0.364723 1.338240 0.848648
v 0.401330 1.318732 0.880234
v 0.373494 1.324870 0.811602
v 0.221240 1.238292 0.869284
v 0.216326 1.258021 0.801174
v 0.207555 1.271391 0.838220
vt 0.990115 0.186318
vt 0.941062 0.105093
vt 0.990115 0.104990
vt 0.853535 0.284022
vt 0.729216 0.234969
vt 0.853535 0.234969
vt 0.842618 0.233345
vt 0.891671 0.152120
vt 0.891671 0.233448
vt 0.891840 0.229309
vt 0.940893 0.104990
vt 0.940893 0.229309
vt 0.729216 0.027528
vt 0.810359 0.146357
vt 0.729216 0.151847
vt 0.810528 0.146357
vt 0.891671 0.027528
vt 0.891671 0.151847
vt 0.853704 0.246821
vt 0.978023 0.258503
vt 0.853704 0.258503
vt 0.807279 0.153471
vt 0.729216 0.233345
vt 0.729216 0.152017
vt 0.853704 0.234969
vt 0.978023 0.246651
vt 0.853704 0.246651
vt 0.830766 0.152041
vt 0.842449 0.233345
vt 0.830766 0.233369
vt 0.818915 0.233345
vt 0.830597 0.152041
vt 0.830597 0.233369
vt 0.853704 0.258672
vt 0.931781 0.270355
vt 0.853704 0.270355
vt 0.891840 0.023492
vt 0.969903 0.103366
vt 0.891840 0.104820
vt 0.931781 0.282207
vt 0.853704 0.270524
vt 0.931781 0.270524
vt 0.313187 0.909388
vt 0.240112 0.982463
vt 0.240112 0.909388
vt 0.386493 0.909272
vt 0.459568 0.836197
vt 0.459568 0.909273
vt 0.386378 0.909273
vt 0.313302 0.836197
vt 0.386378 0.836197
vt 0.386378 0.909388
vt 0.313302 0.982463
vt 0.313302 0.909388
vt 0.971897 0.998462
vt 0.649649 0.676214
vt 0.971897 0.676214
vt 0.313187 0.909273
vt 0.240112 0.836197
vt 0.313187 0.836197
vt 0.545402 0.897750
vt 0.545402 0.925034
vt 0.520061 0.914924
vt 0.582389 0.987142
vt 0.564776 0.946044
vt 0.582389 0.925207
vt 0.546936 0.870611
vt 0.576599 0.863046
vt 0.576599 0.924980
vt 0.594439 0.924980
vt 0.576826 0.904144
vt 0.594439 0.863046
vt 0.519834 0.897750
vt 0.519834 0.925034
vt 0.494492 0.914924
vt 0.594439 0.862819
vt 0.576826 0.821721
vt 0.594439 0.800884
vt 0.576599 0.862819
vt 0.546936 0.855253
vt 0.576599 0.800884
vt 0.564549 0.987142
vt 0.546936 0.966305
vt 0.564549 0.925207
vt 0.192881 0.566582
vt 0.089517 0.463218
vt 0.192881 0.463218
vt 0.089517 0.566706
vt 0.192881 0.670070
vt 0.089517 0.670070
vt 0.393221 0.605928
vt 0.500174 0.498974
vt 0.500174 0.605928
vt 0.296493 0.463094
vt 0.399857 0.359730
vt 0.399857 0.463094
vt 0.192881 0.359730
vt 0.089517 0.463094
vt 0.089517 0.359730
vt 0.193005 0.463094
vt 0.296369 0.359730
vt 0.296369 0.463094
vt 0.478646 0.202784
vt 0.550351 0.251785
vt 0.470780 0.253905
vt 0.524450 0.118152
vt 0.573452 0.189858
vt 0.522331 0.197724
vt 0.522247 0.202701
vt 0.470780 0.125858
vt 0.522247 0.118152
vt 0.386148 0.207861
vt 0.437616 0.131019
vt 0.437616 0.215567
vt 0.391263 0.051500
vt 0.470697 0.130912
vt 0.386148 0.130935
vt 0.470780 0.046363
vt 0.542486 0.118069
vt 0.470780 0.118069
vt 0.990115 0.186318
vt 0.941062 0.105093
vt 0.990115 0.104990
vt 0.853535 0.284022
vt 0.729216 0.234969
vt 0.853535 0.234969
vt 0.842618 0.233345
vt 0.891671 0.152120
vt 0.891671 0.233448
vt 0.891840 0.229309
vt 0.940893 0.104990
vt 0.940893 0.229309
vt 0.729216 0.027528
vt 0.810359 0.146357
vt 0.729216 0.151847
vt 0.810528 0.146357
vt 0.891671 0.027528
vt 0.891671 0.151847
vt 0.853704 0.246821
vt 0.978023 0.258503
vt 0.853704 0.258503
vt 0.807279 0.153471
vt 0.729216 0.233345
vt 0.729216 0.152017
vt 0.853704 0.234969
vt 0.978023 0.246651
vt 0.853704 0.246651
vt 0.830766 0.152041
vt 0.842449 0.233345
vt 0.830766 0.233369
vt 0.818915 0.233345
vt 0.830597 0.152041
vt 0.830597 0.233369
vt 0.853704 0.258672
vt 0.931781 0.270355
vt 0.853704 0.270355
vt 0.891840 0.023492
vt 0.969903 0.103366
vt 0.891840 0.104820
vt 0.931781 0.282207
vt 0.853704 0.270524
vt 0.931781 0.270524
vt 0.075067 0.086728
vt 0.039052 0.052376
vt 0.095275 0.051774
vt 0.095275 0.145908
vt 0.162833 0.255951
vt 0.195733 0.155173
vt 0.194407 0.255715
vt 0.095275 0.240043
vt 0.071841 0.149369
vt 0.160009 0.155439
vt 0.197059 0.054631
vt 0.159948 0.155739
vt 0.194463 0.256146
vt 0.162889 0.256418
vt 0.157008 0.055059
vt 0.195673 0.155432
vt 0.053256 0.081986
vt 0.020806 0.141004
vt 0.044253 0.145055
vt 0.002560 0.229632
vt 0.159547 0.048160
vt 0.196882 0.054717
vt 0.014396 0.235979
vt 0.035250 0.208125
vt 0.037594 0.213448
vt 0.194405 0.047266
vt 0.157185 0.054928
vt 0.159728 0.047524
vt 0.040400 0.221303
vt 0.187808 0.039938
vt 0.166216 0.040099
vt 0.074853 0.278933
vt 0.073703 0.240067
vt 0.105247 0.286685
vt 0.082286 0.243286
vt 0.068614 0.212011
vt 0.166031 0.041245
vt 0.194224 0.047862
vt 0.065861 0.250766
vt 0.012281 0.273815
vt 0.028768 0.246548
vt 0.107709 0.083432
vt 0.129860 0.093708
vt 0.128742 0.083432
vt 0.105860 0.050184
vt 0.109164 0.068548
vt 0.105721 0.071410
vt 0.114507 0.044481
vt 0.112936 0.038626
vt 0.107709 0.173535
vt 0.129860 0.163259
vt 0.105721 0.163259
vt 0.129860 0.152597
vt 0.105721 0.152597
vt 0.126667 0.042345
vt 0.126295 0.036470
vt 0.113474 0.076115
vt 0.112255 0.081704
vt 0.125391 0.077533
vt 0.125292 0.083345
vt 0.105721 0.093708
vt 0.129860 0.104371
vt 0.105721 0.104371
vt 0.129860 0.115033
vt 0.138513 0.082074
vt 0.139474 0.037268
vt 0.107748 0.128440
vt 0.105721 0.115033
vt 0.138791 0.043127
vt 0.152439 0.046880
vt 0.129860 0.141935
vt 0.107748 0.128527
vt 0.105721 0.141935
vt 0.152439 0.071659
vt 0.137546 0.075992
vt 0.148238 0.050233
vt 0.956647 0.427608
vt 0.954811 0.429444
vt 0.954811 0.427608
vt 0.954811 0.431280
vt 0.952975 0.433116
vt 0.952975 0.431280
vt 0.956647 0.433116
vt 0.954811 0.434952
vt 0.954811 0.433116
vt 0.956647 0.431280
vt 0.958483 0.431280
vt 0.956647 0.429444
vt 0.898322 0.424290
vt 0.740515 0.582096
vt 0.740515 0.424290
vt 0.719986 0.599525
vt 0.719986 0.385159
vt 0.719986 0.599525
vt 0.934352 0.385159
vt 0.934352 0.385159
vt 0.719986 0.385159
vt 0.950380 0.435789
vt 0.961291 0.424879
vt 0.950380 0.424879
vt 0.934352 0.385159
vt 0.934352 0.385159
vt 0.959448 0.433946
vt 0.952223 0.433946
vt 0.959448 0.433946
vt 0.934352 0.599525
vt 0.095275 0.240043
vt 0.075067 0.086728
vt 0.095275 0.051774
vt 0.053256 0.081986
vt 0.157185 0.054928
vt 0.194407 0.255715
vt 0.162833 0.255951
vt 0.082286 0.243286
vt 0.068614 0.212011
vt 0.159728 0.047524
vt 0.197059 0.054631
vt 0.014396 0.235979
vt 0.035250 0.208125
vt 0.037594 0.213448
vt 0.002560 0.229632
vt 0.039052 0.052376
vt 0.194224 0.047862
vt 0.157008 0.055059
vt 0.159547 0.048160
vt 0.162889 0.256418
vt 0.196882 0.054717
vt 0.194463 0.256146
vt 0.187622 0.041059
vt 0.166031 0.041245
vt 0.031370 0.236237
vt 0.040400 0.221303
vt 0.074853 0.278933
vt 0.073703 0.240067
vt 0.105247 0.286685
vt 0.028768 0.246548
vt 0.012281 0.273815
vt 0.166216 0.040099
vt 0.194405 0.047266
vt 0.105721 0.093708
vt 0.128742 0.083432
vt 0.107709 0.083432
vt 0.105721 0.071410
vt 0.110431 0.053180
vt 0.109164 0.068548
vt 0.105860 0.050184
vt 0.114507 0.044481
vt 0.112936 0.038626
vt 0.128742 0.173535
vt 0.105721 0.163259
vt 0.107709 0.173535
vt 0.129860 0.163259
vt 0.105721 0.152597
vt 0.126667 0.042345
vt 0.126295 0.036470
vt 0.113474 0.076115
vt 0.112255 0.081704
vt 0.125391 0.077533
vt 0.125292 0.083345
vt 0.105721 0.104371
vt 0.129860 0.093708
vt 0.105721 0.115033
vt 0.129860 0.104371
vt 0.138513 0.082074
vt 0.138791 0.043127
vt 0.139474 0.037268
vt 0.107748 0.128440
vt 0.129860 0.115033
vt 0.152439 0.046880
vt 0.129860 0.141935
vt 0.107748 0.128527
vt 0.105721 0.141935
vt 0.129860 0.152597
vt 0.152439 0.071659
vt 0.137546 0.075992
vt 0.146920 0.068167
vt 0.941062 0.186421
vt 0.729216 0.284022
vt 0.842618 0.152017
vt 0.891840 0.104990
vt 0.810359 0.022038
vt 0.810528 0.022038
vt 0.978023 0.246821
vt 0.807279 0.234799
vt 0.978023 0.234969
vt 0.842449 0.152017
vt 0.818915 0.152017
vt 0.931781 0.258672
vt 0.969903 0.022038
vt 0.853704 0.282207
vt 0.313187 0.982463
vt 0.386493 0.836197
vt 0.313302 0.909273
vt 0.386378 0.982463
vt 0.649649 0.998462
vt 0.240112 0.909272
vt 0.089517 0.566582
vt 0.192881 0.566706
vt 0.393221 0.498974
vt 0.296493 0.359730
vt 0.192881 0.463094
vt 0.193005 0.359730
vt 0.550351 0.202784
vt 0.573452 0.118152
vt 0.470780 0.197564
vt 0.386148 0.136156
vt 0.470697 0.046363
vt 0.542486 0.046363
vt 0.941062 0.186421
vt 0.729216 0.284022
vt 0.842618 0.152017
vt 0.891840 0.104990
vt 0.810359 0.022038
vt 0.810528 0.022038
vt 0.978023 0.246821
vt 0.807279 0.234799
vt 0.978023 0.234969
vt 0.842449 0.152017
vt 0.818915 0.152017
vt 0.931781 0.258672
vt 0.969903 0.022038
vt 0.853704 0.282207
vt 0.031370 0.236237
vt 0.065010 0.217754
vt 0.187622 0.041059
vt 0.110431 0.053180
vt 0.128742 0.173535
vt 0.128646 0.128440
vt 0.128646 0.128527
vt 0.146920 0.068167
vt 0.956647 0.434952
vt 0.958483 0.433116
vt 0.898322 0.582096
vt 0.961291 0.435789
vt 0.952223 0.433946
vt 0.934352 0.599525
vt 0.065010 0.217754
vt 0.065861 0.250766
vt 0.187808 0.039938
vt 0.128646 0.128440
vt 0.148238 0.050233
vt 0.128646 0.128527
vn -0.9983 0.0000 0.0575
vn 0.0000 0.0000 -1.0000
vn 0.9983 0.0000 -0.0575
vn 0.0000 0.0000 1.0000
vn 0.0000 -0.9999 0.0111
vn 0.0000 0.9999 -0.0111
vn 0.0006 -0.9999 0.0111
vn -0.0575 0.0000 -0.9983
vn -0.0006 0.9999 -0.0111
vn 0.0575 0.0000 0.9983
vn 0.0000 1.0000 0.0000
vn -1.0000 0.0000 0.0000
vn 0.0000 -1.0000 0.0000
vn 1.0000 0.0000 0.0000
vn 0.0000 -0.9986 0.0523
vn -0.8044 -0.3386 -0.4881
vn 0.0000 0.8006 0.5992
vn 0.8044 -0.3386 -0.4881
vn 0.0000 -0.9986 -0.0523
vn 0.8044 -0.3386 0.4881
vn 0.0000 0.8006 -0.5992
vn -0.8044 -0.3386 0.4881
vn -0.9982 0.0449 -0.0403
vn -0.0962 0.0691 -0.9930
vn 0.9972 0.0742 0.0000
vn 0.0000 0.1145 0.9934
vn 0.0000 -0.9995 -0.0312
vn 0.4156 -0.9074 0.0620
vn 0.4565 0.8884 -0.0479
vn -0.0835 0.1350 -0.9873
vn 0.9540 0.2998 -0.0043
vn -0.0691 0.1033 -0.9922
vn 0.0949 -0.1602 0.9825
vn 0.0772 -0.1211 0.9896
vn -0.4222 -0.9052 0.0494
vn -0.9400 -0.3411 0.0070
vn -0.1346 0.3401 0.9307
vn -0.9875 -0.1575 -0.0050
vn -0.1861 0.3634 -0.9129
vn -0.7523 0.6568 -0.0516
vn -0.3854 0.8242 -0.4150
vn -0.0383 0.9973 -0.0619
vn 0.6354 0.7712 -0.0380
vn -0.3867 0.8629 0.3254
vn -0.4156 0.9074 -0.0620
vn -0.6765 -0.6008 -0.4258
vn 0.8200 -0.0710 -0.5679
vn 0.7879 0.3851 -0.4805
vn -0.1364 0.9704 0.1990
vn -0.7933 -0.0549 0.6063
vn -0.2705 -0.8709 -0.4103
vn -0.6036 0.7471 0.2783
vn 0.4949 0.7831 0.3767
vn 0.5990 0.6252 0.5004
vn -0.6946 -0.3706 0.6165
vn -0.4886 -0.5308 -0.6924
vn 0.5439 0.1370 -0.8279
vn 0.2473 0.8009 -0.5453
vn -0.8155 0.2420 -0.5257
vn -0.7786 0.5859 0.2247
vn -0.7411 -0.4801 0.4693
vn 0.9188 0.0981 0.3823
vn -0.3479 -0.3446 0.8719
vn 0.1970 0.9703 0.1399
vn 0.0000 -0.7510 0.6603
vn 0.0000 -0.7510 -0.6603
vn -0.9747 -0.2228 0.0148
vn 0.2014 -0.9778 -0.0573
vn -0.0071 0.1130 0.9936
vn -0.9847 0.1708 0.0359
vn -0.0671 0.3966 0.9155
vn 0.8367 0.5477 0.0061
vn 0.9831 0.1823 -0.0172
vn -0.0846 0.3348 -0.9385
vn 0.0107 -0.1299 -0.9915
vn -0.1957 0.9183 -0.3441
vn 0.1906 0.9806 0.0467
vn -0.5624 0.8247 0.0590
vn -0.2014 0.9778 0.0573
vn -0.1771 0.8891 0.4221
vn 0.8595 -0.3368 0.3845
vn -0.7334 -0.4852 0.4761
vn 0.8737 0.1789 0.4523
vn -0.1733 0.9729 -0.1531
vn -0.6739 0.7282 -0.1249
vn 0.5161 0.6794 -0.5215
vn -0.9157 0.0958 -0.3903
vn 0.6756 0.4553 -0.5799
vn 0.7335 -0.0028 0.6797
vn -0.4301 -0.7653 0.4787
vn -0.8415 -0.0801 -0.5343
vn -0.4345 -0.4655 0.7711
vn 0.3018 0.7346 0.6076
vn -0.7925 0.2044 0.5745
vn 0.7914 0.3797 -0.4790
vn 0.0074 0.9949 -0.1003
vn -0.6048 -0.6666 -0.4357
vn 0.4830 0.1552 -0.8617
vn -0.8943 0.4397 -0.0832
vn -0.4336 -0.2383 -0.8690
vn -0.0483 -0.9988 0.0000
vn 0.5406 0.1154 0.8333
vn 0.8367 0.5476 0.0061
s off
f 9/1/1 4/2/1 10/3/1
f 4/4/2 11/5/2 10/6/2
f 8/7/3 12/8/3 11/9/3
f 6/10/4 9/11/4 12/12/4
f 7/13/5 1/14/5 3/15/5
f 8/16/6 2/17/6 6/18/6
f 12/19/4 1/20/4 5/21/4
f 5/22/7 14/23/7 13/24/7
f 10/25/2 7/26/2 3/27/2
f 1/28/1 10/29/1 3/30/1
f 15/31/3 13/32/3 14/33/3
f 11/34/8 14/35/8 7/36/8
f 12/37/9 15/38/9 11/39/9
f 5/40/10 16/41/10 12/42/10
f 21/43/11 19/44/11 17/45/11
f 19/46/4 24/47/4 20/48/4
f 23/49/12 22/50/12 24/51/12
f 18/52/13 24/53/13 22/54/13
f 17/55/14 20/56/14 18/57/14
f 21/58/2 18/59/2 22/60/2
f 25/61/15 28/62/15 26/63/15
f 27/64/16 28/65/16 25/66/16
f 25/67/17 26/68/17 27/69/17
f 26/70/18 28/71/18 27/72/18
f 29/73/19 32/74/19 30/75/19
f 31/76/20 32/77/20 29/78/20
f 29/79/21 30/80/21 31/81/21
f 30/82/22 32/83/22 31/84/22
f 34/85/12 35/86/12 33/87/12
f 36/88/2 39/89/2 35/90/2
f 40/91/14 37/92/14 39/93/14
f 38/94/4 33/95/4 37/96/4
f 39/97/13 33/98/13 35/99/13
f 36/100/11 38/101/11 40/102/11
f 42/103/23 43/104/23 41/105/23
f 43/106/24 48/107/24 47/108/24
f 47/109/25 46/110/25 45/111/25
f 46/112/26 41/113/26 45/114/26
f 43/115/27 45/116/27 41/117/27
f 44/118/11 46/119/11 48/120/11
f 57/121/1 52/122/1 58/123/1
f 52/124/2 59/125/2 58/126/2
f 56/127/3 60/128/3 59/129/3
f 54/130/4 57/131/4 60/132/4
f 55/133/5 49/134/5 51/135/5
f 56/136/6 50/137/6 54/138/6
f 60/139/4 49/140/4 53/141/4
f 53/142/7 62/143/7 61/144/7
f 58/145/2 55/146/2 51/147/2
f 49/148/1 58/149/1 51/150/1
f 63/151/3 61/152/3 62/153/3
f 59/154/8 62/155/8 55/156/8
f 60/157/9 63/158/9 59/159/9
f 53/160/10 64/161/10 60/162/10
f 66/163/28 67/164/28 65/165/28
f 68/166/29 66/163/29 65/165/29
f 67/167/30 68/168/30 65/169/30
f 69/170/31 71/171/31 68/166/31
f 70/172/32 69/173/32 68/168/32
f 71/174/33 74/175/33 66/176/33
f 72/177/34 73/178/34 71/174/34
f 74/179/35 70/180/35 67/164/35
f 73/181/36 77/182/36 70/180/36
f 82/183/37 75/184/37 72/177/37
f 78/185/38 75/186/38 76/187/38
f 80/188/39 77/189/39 78/190/39
f 84/191/40 78/185/40 76/187/40
f 81/192/41 78/190/41 79/193/41
f 81/194/42 82/195/42 80/196/42
f 80/197/43 72/198/43 69/170/43
f 83/199/44 76/200/44 82/183/44
f 83/201/45 79/202/45 84/203/45
s 1
f 85/204/46 94/205/47 86/206/48
f 85/207/46 89/208/49 86/209/48
f 85/207/46 90/210/50 87/211/51
f 88/212/52 92/213/53 90/214/50
f 90/214/50 93/215/54 91/216/55
f 87/211/51 91/217/55 97/218/56
f 92/219/53 86/209/48 94/220/47
f 93/221/54 94/220/47 95/222/57
f 87/223/51 95/224/57 94/205/47
f 97/225/56 96/226/58 95/224/57
f 96/227/58 93/221/54 95/222/57
f 91/217/55 98/228/59 97/218/56
f 99/229/60 96/226/58 98/230/59
f 100/231/61 99/232/60 98/228/59
f 102/233/62 101/234/63 100/235/61
f 91/216/55 102/233/62 100/235/61
f 104/236/64 102/237/62 96/227/58
f 101/238/63 104/236/64 99/232/60
s off
f 107/239/12 106/240/12 105/241/12
f 109/242/13 105/243/13 106/244/13
f 110/245/4 105/246/4 108/247/4
f 111/248/14 108/247/14 109/242/14
f 112/249/11 110/245/11 111/248/11
f 112/250/2 109/242/2 106/240/2
f 115/251/14 114/252/14 113/253/14
f 119/254/4 113/255/4 114/256/4
f 115/257/14 113/255/14 116/258/14
f 117/259/65 116/258/65 113/255/65
f 119/260/12 118/261/12 117/262/12
f 118/263/12 120/264/12 117/259/12
f 120/264/66 115/257/66 116/258/66
f 121/265/11 114/266/11 122/267/11
f 118/263/2 122/268/2 115/257/2
f 126/269/67 124/270/67 123/271/67
f 133/272/68 123/271/68 124/270/68
f 129/273/69 123/274/69 125/275/69
f 127/276/70 128/277/70 126/269/70
f 130/278/71 126/279/71 129/273/71
f 130/280/72 131/281/72 132/282/72
f 133/272/73 129/283/73 125/284/73
f 132/285/74 128/286/74 135/287/74
f 124/288/75 131/289/75 133/290/75
f 134/291/76 135/287/76 136/292/76
f 138/293/77 132/282/77 134/294/77
f 137/295/78 135/296/78 127/297/78
f 134/298/79 137/295/79 138/299/79
f 138/300/80 127/301/80 130/278/80
s 1
f 141/302/81 140/303/82 139/304/83
f 140/305/82 142/306/84 143/307/85
f 139/308/83 144/309/86 141/310/81
f 143/311/85 144/312/86 142/313/84
f 146/314/87 145/315/88 144/312/86
f 141/310/81 145/316/88 151/317/89
f 146/318/87 140/305/82 148/319/90
f 147/320/91 148/319/90 149/321/92
f 151/322/89 148/323/90 141/302/81
f 152/324/93 149/325/92 151/322/89
f 150/326/94 147/320/91 149/321/92
f 151/317/89 154/327/95 152/328/93
f 153/329/96 150/330/94 152/324/93
f 154/327/95 153/331/96 152/328/93
f 156/332/97 155/333/98 154/334/95
f 147/335/91 154/334/95 145/315/88
f 158/336/99 156/337/97 150/326/94
f 153/331/96 157/338/100 158/336/99
s off
f 9/1/1 2/339/1 4/2/1
f 4/4/2 8/340/2 11/5/2
f 8/7/3 6/341/3 12/8/3
f 6/10/4 2/342/4 9/11/4
f 7/13/5 5/343/5 1/14/5
f 8/16/6 4/344/6 2/17/6
f 12/19/4 9/345/4 1/20/4
f 5/22/7 7/346/7 14/23/7
f 10/25/2 11/347/2 7/26/2
f 1/28/1 9/348/1 10/29/1
f 15/31/3 16/349/3 13/32/3
f 11/34/8 15/350/8 14/35/8
f 12/37/9 16/351/9 15/38/9
f 5/40/10 13/352/10 16/41/10
f 21/43/11 23/353/11 19/44/11
f 19/46/4 23/354/4 24/47/4
f 23/49/12 21/355/12 22/50/12
f 18/52/13 20/356/13 24/53/13
f 17/55/14 19/357/14 20/56/14
f 21/58/2 17/358/2 18/59/2
f 34/85/12 36/359/12 35/86/12
f 36/88/2 40/360/2 39/89/2
f 40/91/14 38/361/14 37/92/14
f 38/94/4 34/362/4 33/95/4
f 39/97/13 37/363/13 33/98/13
f 36/100/11 34/364/11 38/101/11
f 42/103/12 44/365/12 43/104/12
f 43/106/2 44/366/2 48/107/2
f 47/109/25 48/367/25 46/110/25
f 46/112/26 42/368/26 41/113/26
f 43/115/101 47/369/101 45/116/101
f 44/118/11 42/370/11 46/119/11
f 57/121/1 50/371/1 52/122/1
f 52/124/2 56/372/2 59/125/2
f 56/127/3 54/373/3 60/128/3
f 54/130/4 50/374/4 57/131/4
f 55/133/5 53/375/5 49/134/5
f 56/136/6 52/376/6 50/137/6
f 60/139/4 57/377/4 49/140/4
f 53/142/7 55/378/7 62/143/7
f 58/145/2 59/379/2 55/146/2
f 49/148/1 57/380/1 58/149/1
f 63/151/3 64/381/3 61/152/3
f 59/154/8 63/382/8 62/155/8
f 60/157/9 64/383/9 63/158/9
f 53/160/10 61/384/10 64/161/10
f 66/163/28 74/179/28 67/164/28
f 68/166/29 71/171/29 66/163/29
f 67/167/30 70/172/30 68/168/30
f 69/170/31 72/198/31 71/171/31
f 70/172/32 77/189/32 69/173/32
f 71/174/33 73/178/33 74/175/33
f 72/177/34 75/184/34 73/178/34
f 74/179/35 73/181/35 70/180/35
f 73/181/36 75/186/36 77/182/36
f 82/183/37 76/200/37 75/184/37
f 78/185/38 77/182/38 75/186/38
f 80/188/39 69/173/39 77/189/39
f 84/191/40 79/385/40 78/185/40
f 81/192/41 80/188/41 78/190/41
f 81/194/42 83/201/42 82/195/42
f 80/197/43 82/386/43 72/198/43
f 83/199/44 84/387/44 76/200/44
f 83/201/45 81/194/45 79/202/45
s 1
f 85/204/46 87/223/51 94/205/47
f 85/207/46 88/388/52 89/208/49
f 85/207/46 88/388/52 90/210/50
f 88/212/52 89/389/49 92/213/53
f 90/214/50 92/213/53 93/215/54
f 87/211/51 90/210/50 91/217/55
f 92/219/53 89/208/49 86/209/48
f 93/221/54 92/219/53 94/220/47
f 87/223/51 97/225/56 95/224/57
f 97/225/56 98/230/59 96/226/58
f 96/227/58 102/237/62 93/221/54
f 91/217/55 100/231/61 98/228/59
f 99/229/60 104/390/64 96/226/58
f 100/231/61 101/238/63 99/232/60
f 102/233/62 103/391/102 101/234/63
f 91/216/55 93/215/54 102/233/62
f 104/236/64 103/392/102 102/237/62
f 101/238/63 103/392/102 104/236/64
s off
f 107/239/12 112/250/12 106/240/12
f 109/242/13 108/247/13 105/243/13
f 110/245/4 107/393/4 105/246/4
f 111/248/14 110/245/14 108/247/14
f 112/249/11 107/394/11 110/245/11
f 112/250/2 111/248/2 109/242/2
f 115/251/14 122/395/14 114/252/14
f 119/254/4 117/259/4 113/255/4
f 117/259/65 120/264/65 116/258/65
f 119/260/12 121/396/12 118/261/12
f 120/264/66 118/263/66 115/257/66
f 121/265/11 119/397/11 114/266/11
f 118/263/2 121/398/2 122/268/2
f 126/269/67 128/277/67 124/270/67
f 133/272/68 125/284/68 123/271/68
f 129/273/69 126/279/69 123/274/69
f 127/276/70 135/399/70 128/277/70
f 130/278/71 127/301/71 126/279/71
f 130/280/103 129/283/103 131/281/103
f 133/272/73 131/281/73 129/283/73
f 132/285/74 131/289/74 128/286/74
f 124/288/75 128/286/75 131/289/75
f 134/291/76 132/285/76 135/287/76
f 138/293/77 130/280/77 132/282/77
f 137/295/78 136/400/78 135/296/78
f 134/298/79 136/400/79 137/295/79
f 138/300/80 137/401/80 127/301/80
s 1
f 141/302/81 148/323/90 140/303/82
f 140/305/82 139/308/83 142/306/84
f 139/308/83 142/306/84 144/309/86
f 143/311/85 146/314/87 144/312/86
f 146/314/87 147/335/91 145/315/88
f 141/310/81 144/309/86 145/316/88
f 146/318/87 143/307/85 140/305/82
f 147/320/91 146/318/87 148/319/90
f 151/322/89 149/325/92 148/323/90
f 152/324/93 150/330/94 149/325/92
f 150/326/94 156/337/97 147/320/91
f 151/317/89 145/316/88 154/327/95
f 153/329/96 158/402/99 150/330/94
f 154/327/95 155/403/98 153/331/96
f 156/332/97 157/404/100 155/333/98
f 147/335/91 156/332/97 154/334/95
f 158/336/99 157/338/100 156/337/97
f 153/331/96 155/403/98 157/338/100
l 21 25
l 17 26
