# Blender v2.93.4 OBJ File: 'sword.blend1'
# www.blender.org
mtllib swordModel.mtl
o hat.011_Cylinder.011
v 0.200086 0.467020 0.222761
v 0.241438 0.475464 0.007560
v 0.177170 0.479758 -0.039641
v 0.201270 0.502570 0.224383
v 0.242623 0.511014 0.009182
v 0.178354 0.515308 -0.038019
v 0.238038 0.513562 -0.043316
v 0.155437 0.528046 -0.300420
v 0.233453 0.516110 -0.095814
v 0.154253 0.492496 -0.302042
v 0.232268 0.480560 -0.097436
v 0.236853 0.478012 -0.044938
v 1.003466 0.459096 -0.163934
v 0.040752 0.486164 -0.080438
v 0.045337 0.483616 -0.027940
v 0.041936 0.521714 -0.078816
v 0.046521 0.519166 -0.026318
v 0.051106 0.516617 0.026180
v 0.049922 0.481067 0.024558
v 1.263386 0.447975 -0.109965
v 1.004650 0.494646 -0.162312
v 1.264571 0.483525 -0.108342
v 1.018003 0.487224 -0.009420
v 1.016819 0.451674 -0.011042
vt 0.889700 0.346061
vt 0.912727 0.346061
vt 0.912727 0.558795
vt 0.889700 0.558795
vt 0.851638 0.613625
vt 0.851638 0.869438
vt 0.812872 0.869438
vt 0.812872 0.818258
vt 0.504412 0.000243
vt 0.504412 0.256056
vt 0.481384 0.256056
vt 0.481385 0.000242
vt 0.703222 0.522066
vt 0.839644 0.463917
vt 0.873764 0.463917
vt 0.873764 0.522066
vt 0.810713 0.089763
vt 0.810713 0.345576
vt 0.771947 0.345576
vt 0.771947 0.294396
vt 0.480899 0.258469
vt 0.480899 0.514282
vt 0.457872 0.514282
vt 0.457872 0.258469
vt 0.504412 0.471204
vt 0.481384 0.471204
vt 0.481384 0.258469
vt 0.504412 0.258469
vt 0.812387 0.869438
vt 0.773621 0.664805
vt 0.773621 0.613625
vt 0.812387 0.613625
vt 0.900911 0.800217
vt 0.866791 0.800217
vt 0.866791 0.613625
vt 0.900911 0.613625
vt 0.935030 0.613625
vt 0.935030 0.800217
vt 0.120259 0.999758
vt 0.108847 0.248777
vt 0.154367 0.000242
vt 0.154367 0.998467
vt 0.247397 0.000242
vt 0.247397 0.751420
vt 0.224370 0.751474
vt 0.224370 0.000296
vt 0.504896 0.445061
vt 0.504897 0.258469
vt 0.527924 0.258469
vt 0.527924 0.445061
vt 0.339634 0.256540
vt 0.339634 0.307720
vt 0.316607 0.307720
vt 0.316607 0.256540
vt 0.737342 0.276840
vt 0.771462 0.276840
vt 0.771462 0.463432
vt 0.737342 0.463432
vt 0.703222 0.463432
vt 0.703222 0.276840
vt 0.316607 0.359385
vt 0.316607 0.308205
vt 0.339634 0.308205
vt 0.339634 0.359385
vt 0.846220 0.456919
vt 0.823192 0.456919
vt 0.823192 0.270327
vt 0.846220 0.270327
vt 0.434360 0.257984
vt 0.434360 0.000243
vt 0.457387 0.000242
vt 0.457387 0.257984
vt 0.650338 0.003558
vt 0.684447 0.004849
vt 0.684447 1.003069
vt 0.638927 0.754537
vt 0.547276 1.000484
vt 0.527568 0.248331
vt 0.581385 0.003558
vt 0.581385 1.001775
vt 0.480900 0.257984
vt 0.457872 0.257984
vt 0.457872 0.000242
vt 0.480900 0.000242
vt 0.223885 0.752976
vt 0.200858 0.753029
vt 0.200857 0.000295
vt 0.223885 0.000242
vt 0.019951 0.001533
vt 0.054060 0.000242
vt 0.054060 0.998462
vt 0.000242 0.753688
vn 0.9815 -0.0412 0.1870
vn -0.0333 -0.9984 -0.0456
vn 0.9957 -0.0291 -0.0884
vn 0.0333 0.9984 0.0456
vn 0.9340 -0.0148 -0.3570
vn -0.0321 -0.9983 -0.0483
vn 0.0845 -0.0482 0.9953
vn 0.0869 -0.0483 0.9950
vn -0.2047 -0.0378 0.9781
vn 0.0321 0.9983 0.0483
vn 0.0318 0.9986 0.0433
vn 0.3711 -0.0547 0.9270
vn 0.0225 -0.0463 0.9987
vn -0.0318 -0.9986 -0.0433
usemtl Material.001
s off
f 2/1/1 5/2/1 4/3/1 1/4/1
f 1/5/2 3/6/2 12/7/2 2/8/2
f 1/9/3 3/10/3 6/11/3 4/12/3
f 4/13/4 5/14/4 7/15/4 6/16/4
f 8/17/4 6/18/4 7/19/4 9/20/4
f 3/21/3 10/22/3 8/23/3 6/24/3
f 10/25/5 8/26/5 9/27/5 11/28/5
f 10/29/2 11/30/2 12/31/2 3/32/2
f 12/33/2 2/34/2 19/35/2 15/36/2 14/37/2 11/38/2
f 11/39/6 13/40/6 20/41/6 12/42/6
f 11/43/7 13/44/7 21/45/7 9/46/7
f 14/47/8 11/48/8 9/49/8 16/50/8
f 15/51/3 14/52/3 16/53/3 17/54/3
f 7/55/4 9/56/4 16/57/4 17/58/4 18/59/4 5/60/4
f 19/61/3 15/62/3 17/63/3 18/64/3
f 2/65/8 5/66/8 18/67/8 19/68/8
f 13/69/9 20/70/9 22/71/9 21/72/9
f 9/73/10 7/74/10 22/75/10 21/76/10
f 5/77/11 23/78/11 22/79/11 7/80/11
f 20/81/12 22/82/12 23/83/12 24/84/12
f 24/85/13 23/86/13 5/87/13 2/88/13
f 2/89/14 12/90/14 20/91/14 24/92/14
